# xmcd
#
# Track frame offsets: 
#        150
#        11775
#        22817
#        34140
#        48347
#        59495
#        67047
#        75495
#        88412
#        98367
#        109012
#        120720
#        132905
#        146540
#        155290
#        166317
#
# Disc length: 2343 seconds
#
# Revision: 4
# Processed by: cddbd v1.5.2PL0 Copyright (c) Steve Scherf et al.
# Submitted via: ExactAudioCopy v1.3
#
DISCID=cc092510
DTITLE=Don Reno, Arthur Smith and Benny Martin - The Original Dueling Ba
DTITLE=njos
DYEAR=1991
DGENRE=Bluegrass
TTITLE0=Feudin' Banjos (The Original Dueling Banjos) - Don Reno
TTITLE1=Redeliverance - Arthur Smith and Don Reno
TTITLE2=Pennsylvania Polka - Arthur Smith and Don Reno
TTITLE3=Down that Last Lonesome Highway - Don Reno
TTITLE4=Bye and Bye - Arthur Smith
TTITLE5=Twelve String Rag - Arthur Smith and Benny Martin
TTITLE6=Under the Silvry Moon - Arthur Smith and Benny Martin
TTITLE7=Chicken - Arthur Smith and Don Reno
TTITLE8=Twelfth Street Rag - Don Reno and Arthur Smith
TTITLE9=Down in Dixie - Arthur Smith and Benny Martin
TTITLE10=Memphis Five String - Don Reno and Arthur Smith
TTITLE11=Nova Scotia Sleigh Ride - Don Reno
TTITLE12=Mountaineers Farewell - Don Reno
TTITLE13=Wildflower Guitar - Arthur Smith and Benny Martin
TTITLE14=Little Footprints in the Snow - Arthur Smith
TTITLE15=Dueling Banjos - Arthur Smith
EXTD=
EXTT0=
EXTT1=
EXTT2=
EXTT3=
EXTT4=
EXTT5=
EXTT6=
EXTT7=
EXTT8=
EXTT9=
EXTT10=
EXTT11=
EXTT12=
EXTT13=
EXTT14=
EXTT15=
PLAYORDER=
